<svg width="158" height="46" viewBox="0 0 158 46" fill="none" xmlns="http://www.w3.org/2000/svg">
<path fill-rule="evenodd" clip-rule="evenodd" d="M0 23C0 10.2974 10.3519 0 23.1215 0C35.8912 0 46.243 10.2974 46.243 23C46.243 35.7026 35.8912 46 23.1215 46C10.3519 46 0 35.7026 0 23ZM25.6593 23.4983L19.0589 29.4091L20.9033 20.7744C21.7518 21.1361 22.5748 21.5425 23.3621 21.9947L23.3636 21.9956C24.1593 22.4516 24.9249 22.9549 25.6593 23.4983ZM31.1092 23.4532L37.6725 17.5755L35.2553 14.9047L28.391 21.0519C27.3768 20.2609 26.302 19.532 25.1678 18.8821C24.0472 18.2385 22.8733 17.6791 21.6669 17.1996L23.5884 8.20416L20.0545 7.45724L18.2167 16.0615C15.9738 15.4623 13.6894 15.1089 11.4845 14.9772L11.268 18.5645C13.3173 18.6868 15.4225 19.0222 17.4646 19.5823L14.3699 34.0704L17.3454 35.7793L28.4201 25.8614C29.9267 27.3401 31.2567 28.9826 32.3956 30.6984L35.4104 28.7183C34.1878 26.8763 32.7516 25.0873 31.1092 23.4532ZM109.652 0C104.117 0 100.427 3.67361 100.427 9.12278V12.7352H95.5688V17.6946H100.427V43.4711H106.331V17.6946L118.673 17.696V43.4711H124.576V12.7352H106.331V8.81664C106.331 6.42882 107.684 4.89812 109.713 4.89812C111.005 4.89812 111.927 5.50995 112.664 6.48895L116.041 3.1301C114.61 1.12546 112.343 0 109.652 0ZM85.8964 43.471V0.612256H91.8002V43.471H85.8964ZM74.5526 43.4711V38.2668C72.6458 42.0016 69.2634 44.0834 64.8354 44.0834C59.0545 44.0834 55.0572 40.6546 55.0572 35.2666C55.0572 30.3073 58.3166 27.3684 65.8194 25.9602L74.1832 24.4908C73.9989 19.8988 71.1698 17.1435 66.8649 17.1435C62.437 17.1435 59.977 19.4702 58.7471 23.8172L53.9502 22.4091C55.1187 16.2251 60.1615 11.9393 67.1109 11.9393C75.0441 11.9393 80.0255 16.9598 80.0255 24.3683V43.4711H74.5526ZM60.961 35.3891C60.961 38.2055 63.1135 39.7974 66.0039 39.7974C70.7394 39.7974 74.1832 35.6341 74.1832 29.8175V28.8379L67.8489 30.0624C63.1751 30.9808 60.961 32.389 60.961 35.3891ZM130.449 12.7352V43.4711H136.353V28.7766C136.353 20.8784 140.289 16.9598 145.209 16.9598C149.452 16.9598 152.096 19.8988 152.096 24.7356V43.4711H158V24.0009C158 16.5925 153.449 11.9393 146.623 11.9393C142.072 11.9393 138.505 13.9597 136.353 18.0007V12.7352H130.449ZM121.664 1.33182L117.226 5.74645L121.664 10.1611L126.102 5.74645L121.664 1.33182Z" fill="white"/>
</svg>
