<?xml version="1.0" encoding="UTF-8"?> <svg xmlns="http://www.w3.org/2000/svg" width="268" height="51" viewBox="0 0 268 51" fill="none"><path d="M59.5 12.9001V37.5001C59.5 45.4001 61.7 47.8001 62.6 48.7001V49.1H46.4V48.7001C47.3 48.0001 49.5 45.4001 49.5 37.5001V5.00006H48.8L35.4 37.7001C32.1 45.6001 33 48.0001 33.9 48.9001V49.3H25.1L7.29999 5.00006H6.59998V37.5001C6.59998 45.4001 8.80001 47.8001 9.70001 48.7001V49.1H0V48.7001C0.9 48.0001 3.09998 45.4001 3.09998 37.5001V12.9001C3.09998 5.00009 0.9 2.60007 0 1.70007V1.30005H15.3L31.1 40.1L46.9 1.30005H62.5V1.70007C61.6 2.40007 59.4 5.00009 59.4 12.9001H59.5Z" fill="#FFFBF5"></path><path d="M145.3 50.4C130.8 50.4 124.3 41 124.3 35.3H135V35.7C135 35.7 133.2 37.7 136.3 41.4C138.5 43.8 141.8 45.4 145.3 45.4C152.8 45.4 157.1 41.9 157.1 37.3C157.1 32.7 155.6 30.1 145 28.1C134 25.9 125 23.9 125 14.1C125 14.1 123.9 0.0999756 146 0.0999756C168.1 0.0999756 166.2 9.09999 166.2 13.3H155.5V13.1C155.5 13.1 157.3 11.1 153.7 7.79999C152.2 6.49999 149.5 5.60002 146 5.40002C142.7 5.20002 134.8 6.70001 134.8 12.2C134.8 17.7 139.2 18.8 144.9 19.9C154.6 21.7 166.2 24.9 167.1 33.9C167.5 38.1 168.2 50.8 145.2 50.6L145.3 50.4Z" fill="#FFFBF5"></path><path d="M214 38.4L217.5 42.6C214.9 45 209.4 50.5 198.4 50.5C187.4 50.5 173.2 43.3 173.2 25.3C173.2 7.29999 179.6 0.0999756 198.4 0.0999756C217.2 0.0999756 214.8 5.6 217.5 8L212 14.4L211.8 14.2C211.8 14.2 212 9.40001 206.5 6.70001C204.3 5.80001 201.7 5.20001 198.4 5.20001C187.2 5.20001 183.9 14.4 183.9 25.4C183.9 44.5 195.7 45.6 198.4 45.6C207.2 45.6 211.3 41.2 214 38.6V38.4Z" fill="#FFFBF5"></path><path d="M255 48.5999C255.9 47.8999 256.8 45.3 253.7 37.4H227.8L227.6 37.7999C224.5 45.4999 225.4 48.0999 226.3 48.7999V49.2H219.9L234.8 12.7999C237.9 4.89993 237.2 2.49991 236.3 1.59991V1.19995H251.6V1.39996C250.7 2.29996 250.1 4.69991 253.1 12.5999L267.8 49.2H254.9V48.4999L255 48.5999ZM251.3 32.4L241 7.19995H240.3L230 32.4H251.3Z" fill="#FFFBF5"></path><path d="M93.4002 0C76.5002 0 68.2002 10.3 68.2002 25.2C68.2002 40.1 70.6002 39.7 75.0002 43.9V30.6H77.8002V46.2C78.7002 46.8 79.6002 47.3 80.6002 47.8V30.6H83.4002V48.9C84.6002 49.3 86.0002 49.6 87.4002 49.9V30.6H88.0002V50C89.1002 50.2 90.2002 50.3 91.4002 50.4H93.1002V30.6H93.7002V50.4H95.4002C96.6002 50.4 97.7002 50.2 98.8002 50.1V30.7H99.4002V50C100.8 49.8 102.1 49.5 103.4 49V30.6H106.2V47.9C107.2 47.4 108.2 46.9 109 46.3V30.6H111.8V43.9C116.1 39.6 118.6 33.3 118.6 25.2C118.6 10.3 110.3 0 93.4002 0ZM89.2002 30.6H86.4002V19.3H89.2002V30.6ZM94.8002 30.6H92.0002V10.8H94.8002V30.6ZM100.5 30.6H97.7002V19.3H100.5V30.6Z" fill="#FFFBF5"></path></svg> 