<svg width="58" height="58" viewBox="0 0 58 58" fill="none" xmlns="http://www.w3.org/2000/svg">
<g clip-path="url(#clip0_3023_3156)">
<path d="M10.5722 50.8147H9.53768C8.10981 50.8147 7.21711 49.2697 7.93038 48.0327L14.6406 36.3892H18.0603L12.2737 49.6992C11.9793 50.3763 11.3111 50.8147 10.5722 50.8147Z" fill="#7B69FF"/>
<path d="M15.8613 50.8147H14.6186C13.2826 50.8147 12.3846 49.4451 12.9171 48.2197L18.0603 36.3892H21.48L17.6418 49.4814C17.4102 50.2715 16.685 50.8147 15.8613 50.8147Z" fill="#5F4BF6"/>
<path d="M20.4202 50.8147H19.7282C18.4903 50.8147 17.5994 49.6254 17.9481 48.4375L21.48 36.3892H24.8996L23.0563 48.548C22.8588 49.8513 21.7385 50.8147 20.4202 50.8147Z" fill="#7B69FF"/>
<path d="M37.6294 51.3848C36.0362 51.3848 34.744 50.093 34.744 48.4994V45.0444C34.744 43.4508 36.0362 42.1591 37.6294 42.1591C39.223 42.1591 40.5148 43.4508 40.5148 45.0444V48.4994C40.5148 50.0926 39.223 51.3848 37.6294 51.3848Z" fill="#EFD176"/>
<path d="M40.2045 23.2295C37.5525 23.2295 35.2182 24.9799 34.4758 27.5263C34.2124 28.4292 34.8899 29.3321 35.8307 29.3321H37.4893C34.8355 29.3321 32.5008 31.0848 31.7597 33.6329C31.4976 34.534 32.1769 35.4351 33.1155 35.4351H34.7741C32.1221 35.4351 29.7878 37.1856 29.0453 39.7315C29.0453 40.725 29.8585 41.5377 30.8515 41.5377H48.7704C53.8261 41.5377 57.9245 37.4392 57.9245 32.3836C57.9245 27.3279 53.8261 23.2295 48.7704 23.2295H40.2045Z" fill="#5F4BF6"/>
<path d="M53.2167 26.3738C53.2167 15.4736 44.2376 6.63724 31.5807 6.63724C18.9243 6.63724 8.6645 15.4736 8.6645 26.3738C8.6645 37.2744 18.9243 46.1108 31.5807 46.1108C44.2371 46.1108 53.2167 37.2744 53.2167 26.3738Z" fill="#7B69FF"/>
<path d="M41.1348 44.2211C21.8755 40.9048 22.2512 12.9948 30.258 6.67081C18.2172 7.26122 8.6645 15.8563 8.6645 26.3738C8.6645 37.2744 18.9243 46.1108 31.5807 46.1108C35.0852 46.1108 38.3069 45.4324 41.1348 44.2211Z" fill="#5F4BF6"/>
<path d="M29.3322 51.3848C27.739 51.3848 26.4468 50.093 26.4468 48.4994V45.0444C26.4468 43.4508 27.739 42.1591 29.3322 42.1591C30.9258 42.1591 32.2175 43.4508 32.2175 45.0444V48.4994C32.2175 50.0926 30.9258 51.3848 29.3322 51.3848Z" fill="#EFD176"/>
<path d="M1.74784 27.7866C-0.127704 25.9111 -0.540024 23.0231 0.735383 20.6976C1.18748 19.873 2.30512 19.7135 2.97022 20.3786L4.1431 21.5515C2.26711 19.675 1.85479 16.7848 3.13285 14.4589C3.5845 13.6365 4.70214 13.4796 5.36547 14.1434L6.53879 15.3163C4.66325 13.4407 4.25049 10.5527 5.52589 8.22729C6.22856 7.52507 7.37802 7.52507 8.08024 8.22729L20.7508 20.8978C24.3256 24.4726 24.3256 30.2685 20.7508 33.8437C17.1756 37.4185 11.3797 37.4185 7.80492 33.8437L1.74784 27.7866Z" fill="#7B69FF"/>
<path d="M10.7247 20.3512C10.5078 20.3512 10.2908 20.2681 10.1246 20.1024L5.93865 15.9164C5.60721 15.585 5.60721 15.0476 5.93865 14.7166C6.2701 14.3851 6.80704 14.3851 7.13849 14.7166L11.3249 18.9025C11.6563 19.234 11.6563 19.7714 11.3249 20.1028C11.1592 20.2681 10.9422 20.3512 10.7247 20.3512Z" fill="#5F4BF6"/>
<path d="M8.32949 26.5864C8.11206 26.5864 7.89507 26.5033 7.72935 26.3375L3.5434 22.1516C3.21195 21.8202 3.21195 21.2828 3.5434 20.9513C3.87484 20.6203 4.41179 20.6203 4.74323 20.9513L8.92963 25.1377C9.26108 25.4692 9.26108 26.0061 8.92963 26.3375C8.7639 26.5033 8.54648 26.5864 8.32949 26.5864Z" fill="#5F4BF6"/>
<path d="M33.1783 24.3891C33.1783 22.8759 31.6377 21.6491 29.7374 21.6491C27.8375 21.6491 26.297 22.8759 26.297 24.3891C26.297 25.9022 27.8375 27.129 29.7374 27.129C31.6377 27.129 33.1783 25.9022 33.1783 24.3891Z" fill="#EDA1AB"/>
<path d="M51.8277 24.3891C51.8277 22.8759 50.2871 21.6491 48.3872 21.6491C46.4869 21.6491 44.9464 22.8759 44.9464 24.3891C44.9464 25.9022 46.4869 27.129 48.3872 27.129C50.2871 27.129 51.8277 25.9022 51.8277 24.3891Z" fill="#EDA1AB"/>
<path d="M33.3806 22.2559C32.9117 22.2559 32.5321 21.8758 32.5321 21.4074C32.5321 20.9725 32.1781 20.6181 31.7428 20.6181C31.3075 20.6181 30.9536 20.9721 30.9536 21.4074C30.9536 21.8758 30.5735 22.2559 30.1051 22.2559C29.6366 22.2559 29.2566 21.8758 29.2566 21.4074C29.2566 20.0365 30.372 18.9211 31.7428 18.9211C33.1137 18.9211 34.2291 20.0365 34.2291 21.4074C34.2291 21.8758 33.8491 22.2559 33.3806 22.2559Z" fill="#4E5660"/>
<path d="M48.0196 22.2559C47.5507 22.2559 47.1711 21.8758 47.1711 21.4074C47.1711 20.9725 46.8171 20.6181 46.3818 20.6181C45.9465 20.6181 45.5925 20.9721 45.5925 21.4074C45.5925 21.8758 45.2129 22.2559 44.744 22.2559C44.2756 22.2559 43.8955 21.8758 43.8955 21.4074C43.8955 20.0365 45.0109 18.9211 46.3818 18.9211C47.7527 18.9211 48.8681 20.0365 48.8681 21.4074C48.8681 21.8758 48.4885 22.2559 48.0196 22.2559Z" fill="#4E5660"/>
<path d="M39.4974 20.8979C37.9927 20.4546 36.4172 21.3367 36.0088 22.8512L35.4962 24.7541C35.2916 25.5112 35.8621 26.2558 36.6466 26.2558H42.4473C43.4081 26.2558 43.9742 25.1775 43.428 24.3869L42.5366 23.0969C41.8047 22.038 40.7322 21.262 39.4974 20.8979Z" fill="#F7EF87"/>
</g>
<defs>
<clipPath id="clip0_3023_3156">
<rect width="57.9245" height="57.9245" fill="white" transform="translate(0 0.07547)"/>
</clipPath>
</defs>
</svg>
